<svg width="50.9117" height="50.9117" viewBox="0 0 50.9117 50.9117" fill="none" xmlns="http://www.w3.org/2000/svg"><g transform="rotate(-135 25.4558 25.4558)">
<g id="Group 151">
<ellipse id="Ellipse 11" cx="25.4558" cy="25.4558" rx="18" ry="18" transform="rotate(-45 25.4558 25.4558)" fill="#00824B"/>
<path id="Vector" fill-rule="evenodd" clip-rule="evenodd" d="M25.1514 23.211L21.2486 23.0315C21.0905 23.0244 20.9623 22.8905 20.961 22.7334L20.9617 22.7114L20.9511 20.2012C20.9507 20.0441 21.078 19.9227 21.2349 19.9301C22.1155 19.9724 23.9846 20.0598 25.7997 20.145C27.116 20.2063 28.4067 20.2668 29.9882 20.3438C30.1409 20.3511 30.2669 20.4779 30.2738 20.6294C30.3512 22.2275 30.4103 23.4974 30.4724 24.8113C30.5571 26.6268 30.6437 28.4796 30.6874 29.3818C30.6953 29.5391 30.5739 29.6656 30.4164 29.6656L27.8854 29.6552C27.7284 29.6548 27.5948 29.5261 27.5865 29.3684L27.4066 25.4661L21.4515 31.4211C21.3425 31.5302 21.1617 31.5254 21.0467 31.4104L19.2082 29.5719C19.0933 29.457 19.0889 29.2757 19.1975 29.1671L25.1526 23.2121L25.1514 23.211Z" fill="#F5EFE4"/>
</g>
</g></svg>
